<svg width="52" height="53" viewBox="0 0 52 53" fill="none" xmlns="http://www.w3.org/2000/svg">
<path d="M32.95 0.977089C38.458 -0.798101 43.1296 -0.0729505 46.6179 2.49237C47.8599 3.40573 48.9338 4.5355 49.7901 5.82962C52.1616 9.41639 52.743 14.1494 50.9529 19.6907C49.1858 25.1592 45.0981 31.5036 38.0041 38.7343C30.7927 46.0846 24.4789 50.2692 19.05 52.021C13.542 53.7987 8.87044 53.0736 5.38206 50.5083C4.14013 49.5949 3.06623 48.4651 2.20987 47.171C-0.16162 43.5842 -0.743018 38.8513 1.04707 33.31C2.81422 27.8415 6.90185 21.497 13.9959 14.2663C21.2073 6.91605 27.5211 2.72889 32.95 0.977089ZM34.4876 5.93878C30.1399 7.3423 24.5095 10.9031 17.6042 17.9467C10.811 24.8681 7.31495 30.5341 5.89206 34.9396C5.46411 36.225 5.20266 37.5619 5.11431 38.9163C13.0805 25.6296 25.7769 13.0863 38.7436 5.20064C37.5017 5.20064 36.089 5.42156 34.4876 5.93878ZM44.3612 7.9297C29.9385 15.8024 15.2811 30.3184 7.5011 45.1099C14.3325 41.2295 21.5974 35.2801 28.1815 28.5484C34.7044 21.8791 40.447 14.5574 44.3612 7.9245M13.0499 47.8026C14.3427 47.8286 15.8217 47.6103 17.5124 47.0645C21.8601 45.6609 27.4905 42.0976 34.3958 35.0566C41.189 28.1352 44.685 22.4665 46.1079 18.0636C46.6562 16.3664 46.8959 14.8719 46.8984 13.562C42.8797 19.7764 37.6063 26.2794 31.7949 32.221C25.9375 38.2067 19.4503 43.709 13.0499 47.8026Z" fill="#F8F8F8"/>
</svg>
