<svg width="39" height="53" viewBox="0 0 39 53" fill="none" xmlns="http://www.w3.org/2000/svg">
<path d="M19.4887 53C14.0528 53 9.4463 51.0195 5.66908 47.0586C1.88969 43.0999 0 38.2952 0 32.6446C0 28.9238 0.596063 25.138 1.78819 21.2872C2.976 17.4365 4.51798 13.9315 6.41415 10.7725C8.31033 7.61344 10.4117 5.02826 12.7182 3.01696C15.0247 1.00565 17.2858 0 19.5016 0C21.7325 0 24.0012 0.993536 26.3078 2.98061C28.6143 4.96768 30.7124 7.53964 32.602 10.6965C34.4917 13.8533 36.0305 17.3704 37.2183 21.2476C38.4061 25.1248 39 28.9238 39 32.6446C39 38.2952 37.1071 43.0999 33.3212 47.0586C29.5332 51.0173 24.9223 52.9967 19.4887 52.9967M22.8026 43.0834C23.2605 43.0834 23.6449 42.9247 23.9559 42.6075C24.2669 42.2903 24.4224 41.8982 24.4224 41.4311C24.4224 40.9641 24.2669 40.572 23.9559 40.2547C23.6449 39.9375 23.2605 39.7789 22.8026 39.7789C19.6539 39.7789 16.9759 38.6554 14.7688 36.4084C12.5659 34.1591 11.4645 31.4275 11.4645 28.2134C11.4645 27.7463 11.309 27.3542 10.998 27.037C10.687 26.7197 10.3015 26.5611 9.84151 26.5611C9.38151 26.5611 8.99709 26.7197 8.68826 27.037C8.37943 27.3542 8.22502 27.7463 8.22502 28.2134C8.22502 32.3285 9.64607 35.8356 12.4882 38.7347C15.3303 41.6338 18.7684 43.0834 22.8026 43.0834Z" fill="#F8F8F8"/>
</svg>
