<svg width="53" height="53" viewBox="0 0 53 53" fill="none" xmlns="http://www.w3.org/2000/svg">
<path d="M38.3846 11.8787C38.3846 12.4209 38.2238 12.9509 37.9226 13.4017C37.6214 13.8525 37.1933 14.2039 36.6924 14.4114C36.1915 14.6189 35.6404 14.6732 35.1086 14.5674C34.5769 14.4616 34.0885 14.2005 33.7051 13.8171C33.3218 13.4338 33.0607 12.9453 32.9549 12.4135C32.8491 11.8817 32.9034 11.3305 33.1109 10.8296C33.3184 10.3286 33.6697 9.90049 34.1205 9.59926C34.5713 9.29803 35.1012 9.13725 35.6434 9.13725C36.3704 9.13725 37.0676 9.42607 37.5817 9.94019C38.0958 10.4543 38.3846 11.1516 38.3846 11.8787ZM49.5136 27.3311C45.089 35.3041 36.8495 39.6127 25.0169 40.1473L19.9914 51.892C19.8502 52.2218 19.615 52.5027 19.3152 52.6997C19.0154 52.8967 18.6643 53.0012 18.3056 53H18.1891C17.8125 52.9764 17.4525 52.8368 17.1584 52.6004C16.8643 52.3639 16.6507 52.0423 16.5467 51.6795L13.1659 39.8389L1.33328 36.4509C0.969554 36.3488 0.646432 36.1364 0.408385 35.843C0.170338 35.5496 0.0290696 35.1896 0.00402182 34.8126C-0.021026 34.4356 0.0713785 34.0601 0.268518 33.7378C0.465657 33.4154 0.757839 33.1621 1.10485 33.0127L12.8484 27.9868C13.3852 16.1576 17.6934 7.9196 25.661 3.4922C31.3147 0.353277 37.7084 -0.126472 42.0805 0.0243063C46.3385 0.170515 50.304 0.999795 50.9573 1.39502C51.2241 1.55227 51.4465 1.77473 51.6038 2.04153C51.9898 2.69262 52.8213 6.65855 52.9743 10.9169C53.1297 15.2803 52.6523 21.677 49.5136 27.3311ZM48.5314 4.46998C45.2991 3.78462 33.8891 1.95701 25.6199 7.83964C24.2512 8.81626 23.0217 9.97446 21.965 11.2824C21.8785 12.4759 22.0533 13.6738 22.4774 14.7927C22.9015 15.9116 23.5646 16.9245 24.4205 17.7606C25.2764 18.5968 26.3044 19.2361 27.4328 19.6339C28.5612 20.0318 29.7628 20.1786 30.9537 20.0641C31.222 20.0383 31.4927 20.0721 31.7464 20.1632C32.0001 20.2543 32.2305 20.4004 32.4211 20.591C32.6117 20.7816 32.7578 21.012 32.8489 21.2657C32.9399 21.5194 32.9738 21.7902 32.9479 22.0585C32.8337 23.25 32.9809 24.4521 33.3792 25.5809C33.7776 26.7096 34.4175 27.7378 35.2543 28.5936C36.0911 29.4494 37.1046 30.1122 38.2241 30.5358C39.3435 30.9593 40.5419 31.1334 41.7356 31.0458C43.0386 29.9888 44.1913 28.759 45.1621 27.3905C51.0441 19.1274 49.2167 7.70714 48.5314 4.46998Z" fill="#F8F8F8"/>
</svg>
