<svg width="31" height="61" viewBox="0 0 31 61" fill="none" xmlns="http://www.w3.org/2000/svg">
<path d="M22.761 38.077C24.0542 37.2464 25.1407 36.108 25.9277 34.7591C26.7147 33.4101 27.1788 31.8906 27.2806 30.3301C27.3204 29.7039 27.1854 29.0828 26.8916 28.5411C26.5978 27.9995 26.1577 27.5603 25.6241 27.2762C26.9304 26.4518 28.0287 25.3128 28.8229 23.9585C29.6172 22.6042 30.0833 21.0759 30.1806 19.5069C30.2211 18.8682 30.0812 18.235 29.7782 17.6846C29.4753 17.1341 29.0222 16.6903 28.4745 16.4074C26.6013 15.4439 24.4611 15.1536 22.3852 15.5814C24.3444 14.2884 25.7851 12.2974 26.4281 9.99454C26.8264 8.45321 26.8522 6.8415 26.5034 5.3031C26.1546 3.7647 25.4419 2.3474 24.4289 1.17755C24.0308 0.694844 23.5005 0.348863 22.9057 0.183733C22.3108 0.0186037 21.6783 0.0418083 21.0889 0.250387C19.6156 0.753781 18.278 1.62448 17.1952 2.78488C16.1125 3.94529 15.3182 5.35937 14.8832 6.9011C14.2786 9.22037 14.5387 11.6729 15.6113 13.7663C14.0335 12.3477 12.0314 11.5276 9.92477 11.4371C9.30839 11.4042 8.6926 11.5603 8.15424 11.8859C7.61588 12.2116 7.17878 12.6923 6.8975 13.2682C6.19423 14.6722 5.82955 16.2262 5.83523 17.7946C5.84091 19.3631 6.21676 20.8985 6.93007 22.2671C6.32917 22.249 5.73251 22.4116 5.21213 22.7353C4.69174 23.0591 4.26986 23.53 3.99744 24.0914C3.29974 25.4895 2.93635 27.0352 2.93839 28.5959C2.94044 30.1567 3.30787 31.6859 4.00919 33.0525C3.40986 33.0534 2.81934 33.2283 2.30465 33.5574C1.78995 33.8866 1.3717 34.3567 1.09737 34.9146C0.444169 36.1809 0.0740239 37.5784 0.014842 39.0019C-0.044341 40.4254 0.208986 41.8376 0.755722 43.1321C1.30246 44.4266 2.12833 45.5696 3.17108 46.475C4.21383 47.3803 5.44625 48.0243 6.77541 48.3585C7.28663 48.5052 7.81319 48.5923 8.34538 48.618L5.80783 58.0883C5.701 58.487 5.75059 58.9101 5.94569 59.2645C6.14079 59.6189 6.46541 59.8757 6.84815 59.9782C7.23088 60.0808 7.64038 60.0208 7.98655 59.8114C8.33273 59.602 8.58722 59.2604 8.69404 58.8617L11.2316 49.3914C11.7152 49.6376 12.2243 49.828 12.7499 49.9593C13.9069 50.2806 15.1184 50.3606 16.3149 50.1945C17.5114 50.0285 18.6692 49.6198 19.7219 48.9918C21.0538 48.1705 22.1764 47.0257 22.9905 45.6589C23.8045 44.2922 24.2849 42.7454 24.3892 41.1556C24.4253 40.5302 24.292 39.9105 24.0042 39.3664C23.7165 38.8223 23.2858 38.3757 22.761 38.077ZM8.90334 45.5775C7.86143 45.5339 6.85117 45.2248 5.96191 44.6774C5.07265 44.13 4.3318 43.3612 3.80487 42.4391C3.29287 41.4833 3.03342 40.4006 3.05218 39.2979C3.07094 38.1952 3.36726 37.1108 3.91182 36.152C4.38176 36.1892 4.84658 36.2706 5.30057 36.3953C6.08159 36.5872 6.81337 36.9429 7.45121 37.4407C8.08905 37.9385 8.61954 38.5679 9.01029 39.2904C9.53114 40.243 9.79569 41.327 9.7769 42.4316C9.75811 43.5362 9.45665 44.6218 8.90334 45.5775ZM11.8034 34.7543C10.7608 34.7134 9.74955 34.4054 8.85987 33.8578C7.97019 33.3101 7.22983 32.5399 6.70493 31.6159C6.19123 30.6665 5.93 29.5888 5.94735 28.4908C5.96471 27.3927 6.26005 26.3127 6.80383 25.3589C7.27706 25.3723 7.74593 25.4439 8.20063 25.5721C8.98165 25.764 9.71344 26.1198 10.3513 26.6175C10.9891 27.1153 11.5196 27.7447 11.9104 28.4672C12.4312 29.4198 12.6958 30.5038 12.677 31.6084C12.6582 32.713 12.3567 33.7986 11.8034 34.7543ZM14.7035 23.9311C13.6609 23.8902 12.6496 23.5822 11.7599 23.0346C10.8703 22.487 10.1299 21.7167 9.605 20.7927C9.0913 19.8433 8.83006 18.7656 8.84742 17.6676C8.86477 16.5695 9.16011 15.4896 9.7039 14.5357C10.1756 14.5626 10.6432 14.6339 11.1007 14.7489C11.8817 14.9408 12.6135 15.2966 13.2513 15.7944C13.8892 16.2921 14.4197 16.9215 14.8104 17.6441C15.3313 18.5967 15.5958 19.6806 15.577 20.7852C15.5582 21.8898 15.2568 22.9754 14.7035 23.9311ZM19.1795 13.6913C18.4766 12.8999 17.9794 11.9349 17.7331 10.884C17.4868 9.83322 17.4993 8.72992 17.7695 7.67446C18.064 6.60501 18.6276 5.63072 19.4018 4.85241C20.1759 4.0741 21.1326 3.52003 22.1728 3.24755C22.8618 4.03866 23.3474 4.99824 23.5863 6.0406C23.8252 7.08297 23.8099 8.17569 23.5419 9.22118C23.2435 10.2863 22.6845 11.2583 21.9197 12.042C21.1549 12.8256 20.2107 13.394 19.1795 13.6913ZM18.2648 46.3136C17.329 46.8548 16.2795 47.1407 15.2169 47.1437C14.1544 47.1468 13.1145 46.867 12.197 46.3311C12.2274 45.8621 12.3004 45.3961 12.4152 44.9395L12.4313 44.8794C12.861 43.2371 13.8956 41.8237 15.3103 40.9463C16.6848 40.1358 18.3003 39.9093 19.8102 40.3153C20.3653 40.4622 20.8991 40.681 21.3989 40.9666C21.3305 42.0459 21.0093 43.0969 20.4631 44.0287C19.917 44.9604 19.1624 45.7447 18.2648 46.3136ZM21.1649 35.4904C20.2308 36.0375 19.1805 36.3267 18.1168 36.3298C17.0532 36.3328 16.0126 36.0496 15.0971 35.5079C15.1274 35.0389 15.2005 34.5729 15.3153 34.1163L15.3314 34.0562C15.539 33.2457 15.8999 32.483 16.3929 31.8128C16.8859 31.1426 17.501 30.5784 18.2023 30.1532C18.8799 29.7394 19.6274 29.4678 20.4014 29.3543C21.1753 29.2408 21.9602 29.2877 22.7103 29.4921C23.2598 29.6556 23.7918 29.8737 24.299 30.1434C24.2306 31.2227 23.9093 32.2737 23.3632 33.2055C22.8171 34.1372 22.0625 34.9215 21.1649 35.4904ZM24.065 24.6672C23.1336 25.2233 22.0821 25.5177 21.0167 25.5208C19.9512 25.5239 18.9096 25.2355 17.9971 24.6847C18.0275 24.2157 18.1006 23.7498 18.2153 23.2932L18.2314 23.233C18.4391 22.4225 18.8 21.6599 19.2929 20.9896C19.7859 20.3194 20.4011 19.7552 21.1024 19.33C21.7852 18.9195 22.5376 18.653 23.3153 18.5459C24.0931 18.4389 24.8804 18.4936 25.6311 18.7067C26.1759 18.8535 26.6998 19.0697 27.191 19.3503C27.1239 20.4249 26.8039 21.4715 26.2589 22.3984C25.7139 23.3253 24.9606 24.1043 24.065 24.6672Z" fill="#F8F8F8"/>
</svg>
