<svg width="53" height="53" viewBox="0 0 53 53" fill="none" xmlns="http://www.w3.org/2000/svg">
<path d="M48.1263 28.4346C49.8883 26.6755 51.2322 24.5429 52.0585 22.1945C52.8849 19.8462 53.1726 17.3422 52.9005 14.8677C52.6283 12.3931 51.8031 10.0115 50.486 7.89875C49.1689 5.78606 47.3936 3.9964 45.2913 2.66215C39.9658 -0.860696 32.8387 -0.887183 27.4602 2.58269C22.7971 5.57578 20.2271 10.2376 19.7767 15.0583C19.4323 18.5547 18.1075 21.8127 15.67 24.2495L15.5905 24.329C12.5171 27.4015 12.5171 32.0898 15.405 34.9505L18.028 37.5728C19.4162 38.9596 21.2983 39.7386 23.2608 39.7386C25.2232 39.7386 27.1054 38.9596 28.4935 37.5728C31.0635 35.0035 34.4549 33.5996 38.1377 33.2023C41.7675 32.805 45.3178 31.2157 48.1263 28.4346ZM11.2983 47.3202C12.0137 48.8035 11.7752 50.6046 10.53 51.8231C9.99064 52.3704 9.30326 52.7484 8.55213 52.9108C7.80101 53.0732 7.01881 53.0129 6.30147 52.7373C5.58413 52.4617 4.96285 51.9828 4.51385 51.3593C4.06484 50.7358 3.80762 49.9948 3.77375 49.2273C3.00601 49.1934 2.26485 48.9363 1.64117 48.4874C1.0175 48.0385 0.538446 47.4174 0.262763 46.7003C-0.0129194 45.9831 -0.0732384 45.2012 0.089205 44.4502C0.251648 43.6993 0.629791 43.0121 1.17725 42.473C2.39601 41.2545 4.22416 40.9897 5.68139 41.7048L12.2521 35.2683C12.6231 35.7716 13.047 36.3543 13.5239 36.8311L16.1469 39.4534C16.7033 39.9831 17.2332 40.4334 17.922 40.8307L11.2983 47.3202Z" fill="#F8F8F8"/>
</svg>
