<svg width="48" height="48" viewBox="0 0 48 48" fill="none" xmlns="http://www.w3.org/2000/svg">
<path d="M24 6.4V2M8.59998 19.6V28.4C8.60034 31.8251 9.74188 35.1525 11.8443 37.8565C13.9466 40.5604 16.89 42.4869 20.2094 43.3314C21.1158 43.5602 21.9738 43.9738 22.6338 44.6338L24 46L25.3662 44.6338C26.0262 43.9738 26.8842 43.5602 27.7906 43.3314C31.1107 42.4882 34.0549 40.5622 36.1575 37.8579C38.2602 35.1536 39.4011 31.8255 39.4 28.4V19.6" stroke="#F8F8F8" stroke-width="3" stroke-linecap="round" stroke-linejoin="round"/>
<path d="M24 6.39999C15.2 6.39999 7.5 10.8 6.4 15.2C5.8654 17.334 4.3782 19.4944 2 21.8C4.882 21.6196 6.3384 21.162 8.6 19.6C9.788 21.624 10.7604 22.5832 13 24C16.1944 22.5766 17.2988 21.5844 18.5 19.6C19.809 21.789 21.0322 22.7394 24 24C26.882 22.6338 28.0964 21.6724 29.5 19.6C30.8838 21.7494 32.0564 22.7306 35 24C37.6598 22.7944 38.696 21.8726 39.4 19.6C41.6704 21.6152 43.1026 22.1454 46 21.8C43.1466 19.5208 42.1324 17.334 41.6 15.2C40.5 10.8 32.8 6.39999 24 6.39999Z" stroke="#F8F8F8" stroke-width="3" stroke-linecap="round" stroke-linejoin="round"/>
</svg>
