<svg width="32" height="53" viewBox="0 0 32 53" fill="none" xmlns="http://www.w3.org/2000/svg">
<path d="M21.0667 14.6482C21.0667 12.7839 21.6 11.4523 21.8667 10.6533H23.4667L25.8667 3.99498H28V0H4V3.99498H6.13333L8.53333 10.6533H10.1333C10.6667 11.4523 10.9333 12.7839 10.9333 14.6482C10.9333 18.1106 0 31.1608 0 41.5477V46.8744C0 50.603 7.2 53 16 53C24.8 53 32 50.603 32 46.8744V41.5477C32 31.1608 21.0667 18.1106 21.0667 14.6482ZM16 34.6231C14.5855 34.6231 13.229 34.0619 12.2288 33.063C11.2286 32.064 10.6667 30.7092 10.6667 29.2965C10.6667 27.8838 11.2286 26.5289 12.2288 25.53C13.229 24.531 14.5855 23.9699 16 23.9699C17.4145 23.9699 18.771 24.531 19.7712 25.53C20.7714 26.5289 21.3333 27.8838 21.3333 29.2965C21.3333 30.7092 20.7714 32.064 19.7712 33.063C18.771 34.0619 17.4145 34.6231 16 34.6231Z" fill="#F8F8F8"/>
</svg>
