<svg width="30" height="30" viewBox="0 0 30 30" fill="none" xmlns="http://www.w3.org/2000/svg">
<path d="M1.43657 6.97912e-05C1.1251 -0.00311411 0.823066 0.106883 0.58659 0.309621C0.350114 0.512359 0.19528 0.794051 0.150857 1.10235C0.0516377 1.8066 0.00123166 2.51686 0 3.22806C0 11.0246 6.04114 17.4052 13.7143 18.0515V28.7143C13.7143 29.0553 13.8497 29.3823 14.0909 29.6234C14.332 29.8645 14.659 30 15 30C15.341 30 15.668 29.8645 15.9091 29.6234C16.1503 29.3823 16.2857 29.0553 16.2857 28.7143V18.0515C23.9589 17.4052 30 11.0229 30 3.22635C30 2.50635 29.9491 1.79778 29.8474 1.10064C29.8026 0.792649 29.6476 0.511366 29.4112 0.308975C29.1748 0.106585 28.8729 -0.0031715 28.5617 6.97912e-05C25.6929 0.0242644 22.891 0.869736 20.4876 2.43645C18.0842 4.00316 16.1799 6.22553 15 8.84062C13.82 6.22527 11.9154 4.00272 9.51168 2.43599C7.10796 0.869257 4.30571 0.023938 1.43657 6.97912e-05Z" fill="#F8F8F8"/>
</svg>
